<svg width="603" height="162" viewBox="0 0 603 162" fill="none" xmlns="http://www.w3.org/2000/svg">
<path d="M172.387 53.9977C169.216 53.9977 166.588 53.0454 164.504 51.1408C162.51 49.2363 161.513 46.833 161.513 43.9308C161.513 41.0287 162.51 38.6707 164.504 36.8568C166.588 34.9523 169.216 34 172.387 34C175.559 34 178.142 34.9523 180.135 36.8568C182.22 38.6707 183.262 41.0287 183.262 43.9308C183.262 46.833 182.22 49.2363 180.135 51.1408C178.142 53.0454 175.559 53.9977 172.387 53.9977ZM163.688 131.948V64.4726H181.087V131.948H163.688Z" fill="white"/>
<path d="M199.247 131.948V64.4726H214.607L216.102 73.5872C218.277 70.3223 221.132 67.7375 224.666 65.833C228.291 63.8378 232.459 62.8401 237.171 62.8401C247.592 62.8401 254.978 66.876 259.328 74.9476C261.774 71.2292 265.037 68.2817 269.115 66.1051C273.283 63.9285 277.814 62.8401 282.707 62.8401C291.497 62.8401 298.249 65.4702 302.961 70.7304C307.673 75.9905 310.029 83.6994 310.029 93.8569V131.948H292.63V95.4894C292.63 89.6851 291.497 85.2411 289.232 82.1576C287.057 79.0741 283.659 77.5323 279.037 77.5323C274.325 77.5323 270.519 79.2554 267.619 82.7017C264.81 86.1481 263.406 90.9548 263.406 97.1218V131.948H246.007V95.4894C246.007 89.6851 244.874 85.2411 242.608 82.1576C240.343 79.0741 236.854 77.5323 232.142 77.5323C227.52 77.5323 223.76 79.2554 220.86 82.7017C218.051 86.1481 216.646 90.9548 216.646 97.1218V131.948H199.247Z" fill="white"/>
<path d="M349.791 133.58C343.992 133.58 339.234 132.673 335.519 130.859C331.803 128.955 329.04 126.461 327.227 123.377C325.415 120.294 324.509 116.893 324.509 113.174C324.509 106.917 326.955 101.838 331.849 97.9381C336.742 94.0383 344.082 92.0884 353.869 92.0884H370.996V90.4559C370.996 85.8306 369.682 82.4297 367.054 80.2531C364.426 78.0764 361.164 76.9881 357.267 76.9881C353.733 76.9881 350.652 77.8497 348.024 79.5729C345.396 81.2053 343.765 83.654 343.131 86.9189H326.14C326.593 82.0216 328.224 77.759 331.033 74.1313C333.933 70.5036 337.648 67.7375 342.179 65.833C346.71 63.8378 351.785 62.8401 357.403 62.8401C367.009 62.8401 374.576 65.2435 380.103 70.0502C385.631 74.8569 388.395 81.6588 388.395 90.4559V131.948H373.579L371.948 121.065C369.954 124.692 367.145 127.685 363.52 130.043C359.986 132.401 355.41 133.58 349.791 133.58ZM353.733 119.976C358.717 119.976 362.569 118.344 365.287 115.079C368.096 111.814 369.864 107.778 370.589 102.971H355.772C351.151 102.971 347.843 103.833 345.849 105.556C343.856 107.189 342.859 109.229 342.859 111.678C342.859 114.308 343.856 116.349 345.849 117.8C347.843 119.251 350.471 119.976 353.733 119.976Z" fill="white"/>
<path d="M414.65 53.9977C411.478 53.9977 408.85 53.0454 406.766 51.1408C404.772 49.2363 403.775 46.833 403.775 43.9308C403.775 41.0287 404.772 38.6707 406.766 36.8568C408.85 34.9523 411.478 34 414.65 34C417.821 34 420.404 34.9523 422.397 36.8568C424.482 38.6707 425.524 41.0287 425.524 43.9308C425.524 46.833 424.482 49.2363 422.397 51.1408C420.404 53.0454 417.821 53.9977 414.65 53.9977ZM392.221 161.876V147.048H397.523C400.513 147.048 402.643 146.458 403.911 145.279C405.18 144.1 405.814 142.105 405.814 139.294V64.4726H423.213V139.294C423.213 147.456 421.129 153.26 416.96 156.707C412.882 160.153 407.309 161.876 400.241 161.876H392.221Z" fill="white"/>
<path d="M450.749 53.9977C447.578 53.9977 444.95 53.0454 442.865 51.1408C440.872 49.2363 439.875 46.833 439.875 43.9308C439.875 41.0287 440.872 38.6707 442.865 36.8568C444.95 34.9523 447.578 34 450.749 34C453.921 34 456.504 34.9523 458.497 36.8568C460.581 38.6707 461.624 41.0287 461.624 43.9308C461.624 46.833 460.581 49.2363 458.497 51.1408C456.504 53.0454 453.921 53.9977 450.749 53.9977ZM442.05 131.948V64.4726H459.449V131.948H442.05Z" fill="white"/>
<path d="M477.609 131.948V64.4726H492.969L494.328 75.8998C496.412 71.9094 499.403 68.7351 503.299 66.3771C507.287 64.0191 511.954 62.8401 517.3 62.8401C525.637 62.8401 532.116 65.4702 536.738 70.7304C541.36 75.9905 543.67 83.6994 543.67 93.8569V131.948H526.271V95.4894C526.271 89.6851 525.093 85.2411 522.737 82.1576C520.381 79.0741 516.711 77.5323 511.727 77.5323C506.834 77.5323 502.801 79.2554 499.629 82.7017C496.548 86.1481 495.008 90.9548 495.008 97.1218V131.948H477.609Z" fill="white"/>
<path d="M560.308 131.948V64.4725H575.803L577.435 77.1241C579.881 72.7709 583.189 69.3246 587.357 66.7852C591.617 64.1551 596.6 62.8401 602.31 62.8401V81.2052H597.416C593.61 81.2052 590.212 81.7947 587.222 82.9737C584.231 84.1527 581.875 86.1933 580.153 89.0955C578.522 91.9976 577.706 96.0334 577.706 101.203V131.948H560.308Z" fill="white"/>
<path fill-rule="evenodd" clip-rule="evenodd" d="M12 12V96H96V12H12ZM6 0C2.68629 0 0 2.68629 0 6V102C0 105.314 2.68629 108 6 108H102C105.314 108 108 105.314 108 102V6C108 2.68629 105.314 0 102 0H6Z" fill="#1891FC"/>
<path fill-rule="evenodd" clip-rule="evenodd" d="M36 36V120H120V36H36ZM30 24C26.6863 24 24 26.6863 24 30V126C24 129.314 26.6863 132 30 132H126C129.314 132 132 129.314 132 126V30C132 26.6863 129.314 24 126 24H30Z" fill="#00D1FF"/>
<rect x="96" y="24" width="12" height="12" fill="#1891FC"/>
</svg>
